<?xml version="1.0" encoding="utf-8" standalone="yes"?>
<!DOCTYPE svg PUBLIC "-//W3C//DTD SVG 1.1//EN" "http://www.w3.org/Graphics/SVG/1.1/DTD/svg11.dtd">
<svg width="732" height="459" viewBox="0 0 732 459" style="fill:none;stroke:none;fill-rule:evenodd;clip-rule:evenodd;stroke-linecap:round;stroke-linejoin:round;stroke-miterlimit:1.5;" version="1.1" xmlns="http://www.w3.org/2000/svg" xmlns:xlink="http://www.w3.org/1999/xlink"><style id="fontImports">@import url("https://fonts.googleapis.com/css2?family=Roboto:wght@400;700&amp;display=block");</style><rect id="" x="0" y="0" width="732" height="458.865" style="fill: #ffffff;"></rect><g id="items" style="isolation: isolate"><g id="blend" style="mix-blend-mode:multiply"><g id="g-root-6.cr-small_cr_18mjtyd1ejml1n-fill" data-item-order="-148114" data-item-id="6.cr-small_cr_18mjtyd1ejml1n" data-item-class="Shape Stroke Fill Part Indexed ColorStrokeBlack" data-item-index="6" data-renderer-id="0" transform="translate(230, 72.5078125)"><g id="6.cr-small_cr_18mjtyd1ejml1n-fill" stroke="none" fill="#93c131"><g><path d="M 10 46C 10 65.882251 26.117749 82 46 82C 65.882251 82 82 65.882251 82 46C 82 26.117749 65.882251 10 46 10C 26.117749 10 10 26.117749 10 46"></path></g></g></g><g id="g-root-5.cr-small_cr_1hi6u791ejmk8y-fill" data-item-order="-148112" data-item-id="5.cr-small_cr_1hi6u791ejmk8y" data-item-class="Shape Stroke Fill Part Indexed ColorStrokeBlack" data-item-index="5" data-renderer-id="0" transform="translate(146, 218)"><g id="5.cr-small_cr_1hi6u791ejmk8y-fill" stroke="none" fill="#17b0e3"><g><path d="M 10 46C 10 65.882251 26.117749 82 46 82C 65.882251 82 82 65.882251 82 46C 82 26.117749 65.882251 10 46 10C 26.117749 10 10 26.117749 10 46"></path></g></g></g><g id="g-root-4.cr-small_cr_1hi6u791ejmk8x-fill" data-item-order="-148110" data-item-id="4.cr-small_cr_1hi6u791ejmk8x" data-item-class="Shape Stroke Fill Part Indexed ColorStrokeBlack" data-item-index="4" data-renderer-id="0" transform="translate(230, 363.865234375)"><g id="4.cr-small_cr_1hi6u791ejmk8x-fill" stroke="none" fill="#da5da8"><g><path d="M 10 46C 10 65.882251 26.117749 82 46 82C 65.882251 82 82 65.882251 82 46C 82 26.117749 65.882251 10 46 10C 26.117749 10 10 26.117749 10 46"></path></g></g></g><g id="g-root-3.cr-small_cr_1hi6u791ejmk8w-fill" data-item-order="-148108" data-item-id="3.cr-small_cr_1hi6u791ejmk8w" data-item-class="Shape Stroke Fill Part Indexed ColorStrokeBlack" data-item-index="3" data-renderer-id="0" transform="translate(398, 363.4921875)"><g id="3.cr-small_cr_1hi6u791ejmk8w-fill" stroke="none" fill="#e15e5a"><g><path d="M 10 46C 10 65.882251 26.117749 82 46 82C 65.882251 82 82 65.882251 82 46C 82 26.117749 65.882251 10 46 10C 26.117749 10 10 26.117749 10 46"></path></g></g></g><g id="g-root-2.cr-small_cr_1ly0cbp1ejmjgn-fill" data-item-order="-148106" data-item-id="2.cr-small_cr_1ly0cbp1ejmjgn" data-item-class="Shape Stroke Fill Part Indexed ColorStrokeBlack" data-item-index="2" data-renderer-id="0" transform="translate(481.63800048828125, 217.99609375)"><g id="2.cr-small_cr_1ly0cbp1ejmjgn-fill" stroke="none" fill="#e3cd09"><g><path d="M 10 46C 10 65.882251 26.117749 82 46 82C 65.882251 82 82 65.882251 82 46C 82 26.117749 65.882251 10 46 10C 26.117749 10 10 26.117749 10 46"></path></g></g></g><g id="g-root-1.cr-small_cr_1ly0cbp1ejmjgm-fill" data-item-order="-148104" data-item-id="1.cr-small_cr_1ly0cbp1ejmjgm" data-item-class="Shape Stroke Fill Part Indexed Indexed_1 ColorStrokeBlack" data-item-index="1" data-renderer-id="0" transform="translate(398, 72.5078125)"><g id="1.cr-small_cr_1ly0cbp1ejmjgm-fill" stroke="none" fill="#3bc482"><g><path d="M 10 46C 10 65.882251 26.117749 82 46 82C 65.882251 82 82 65.882251 82 46C 82 26.117749 65.882251 10 46 10C 26.117749 10 10 26.117749 10 46"></path></g></g></g><g id="g-root-0.Vector_sy_1qdtug51ejmioc-fill" data-item-order="-148102" data-item-id="0.Vector_sy_1qdtug51ejmioc" data-item-class="Part Indexed_0 Fill Stroke ColorFillBlack ColorStrokeBlack" data-item-index="0" data-renderer-id="0" transform="translate(278, 181.99609375)"><g id="0.Vector_sy_1qdtug51ejmioc-fill" stroke="none" fill="#666666"><g><path d="M 154 81.999998C 154 42.235998 121.765 9.999998 82 9.999998L 82 9.999998C 42.236 9.999998 10 42.235998 10 81.999998L 10 81.999998C 10 121.764998 42.236 153.999998 82 153.999998L 82 153.999998C 121.765 153.999998 154 121.764998 154 81.999998L 154 81.999998Z"></path></g></g></g><g id="g-root-0.Union_sy_1qdtug51ejmiod-fill" data-item-order="-148100" data-item-id="0.Union_sy_1qdtug51ejmiod" data-item-class="Part Indexed_0 Fill Stroke ColorFillBlack ColorStrokeBlack" data-item-index="0" data-renderer-id="0" transform="translate(238, 156.884765625)"><g id="0.Union_sy_1qdtug51ejmiod-fill" stroke="none" fill="#666666"><g><path d="M 61.889 28.540005L 66.072 10.000005L 84.22 15.648005L 78.005 19.236005L 91.166 42.033005C 100.513 37.597005 110.967 35.115005 122 35.115005C 133.077 35.115005 143.571 37.617005 152.945 42.086005L 166.127 19.254005L 159.974 15.702005L 178.122 10.053005L 182.305 28.594005L 176.09 25.006005L 162.9 47.851005C 180.201 59.814005 192.009 79.158005 193.771 101.331005L 220.135 101.331005L 220.135 94.226005L 234.101 107.119005L 220.135 120.011005L 220.135 112.835005L 193.776 112.835005C 192.032 135.030005 180.223 154.396005 162.911 166.371005L 176.058 189.142005L 182.211 185.590005L 178.029 204.130005L 159.881 198.482005L 166.096 194.894005L 152.958 172.138005C 143.58 176.611005 133.082 179.115005 122 179.115005C 110.936 179.115005 100.454 176.619005 91.088 172.160005L 77.973 194.876005L 84.127 198.428005L 65.979 204.077005L 61.796 185.536005L 68.011 189.124005L 81.131 166.400005C 63.787 154.420005 51.957 135.027005 50.221 112.799005L 23.965 112.799005L 23.965 119.904005L 10 107.011005L 23.965 94.119005L 23.965 101.295005L 50.232 101.295005C 52.008 79.094005 63.855 59.732005 81.202 47.781005L 68.042 24.988005L 61.889 28.540005Z"></path></g></g></g><g id="g-root-tx_tiposdea_8ydj6t1ejnyfe-fill" data-item-order="0" data-item-id="tx_tiposdea_8ydj6t1ejnyfe" data-item-class="Label Stroke Title ColorStrokeBlack" data-item-index="none" data-renderer-id="0" transform="translate(200, 2)"><g id="tx_tiposdea_8ydj6t1ejnyfe-fill" stroke="none" fill="#666666"><g><text style="font: 20px Roboto, sans-serif; white-space: pre;"><tspan x="12.22" y="34" dominant-baseline="ideographic">Tipos de Aprendizaje de Máquina</tspan></text></g></g></g><g id="g-root-tx_rbolesde_18mjtyd1ejml1o-fill" data-item-order="0" data-item-id="tx_rbolesde_18mjtyd1ejml1o" data-item-class="Label Stroke Indexed ColorStrokeBlack" data-item-index="6" data-renderer-id="0" transform="translate(110, 86)"><g id="tx_rbolesde_18mjtyd1ejml1o-fill" stroke="none" fill="#666666"><g><text style="font: 20px Roboto, sans-serif; white-space: pre;"><tspan x="20.97" y="34" dominant-baseline="ideographic">Árboles de </tspan><tspan x="39.36" y="58" dominant-baseline="ideographic">Decisión</tspan></text></g></g></g><g id="g-root-spli_8x4o6d1ejgyro-fill" data-item-order="0" data-item-id="spli_8x4o6d1ejgyro" data-item-class="Icon Stroke Indexed InsideFill InsideColorFill ColorStrokeBlack" data-item-index="6" data-renderer-id="0" transform="translate(242, 84.5078125)"></g><g id="g-root-bars_1lrromd1ejgxse-fill" data-item-order="0" data-item-id="bars_1lrromd1ejgxse" data-item-class="Icon Stroke Indexed Indexed_1 InsideFill InsideColorFill ColorStrokeBlack" data-item-index="1" data-renderer-id="0" transform="translate(410, 84.5078125)"></g><g id="g-root-tx_cienciad_hu0jfp1ejnxmp-fill" data-item-order="0" data-item-id="tx_cienciad_hu0jfp1ejnxmp" data-item-class="Label Stroke Indexed Indexed_1 ColorStrokeBlack" data-item-index="1" data-renderer-id="0" transform="translate(482, 98)"><g id="tx_cienciad_hu0jfp1ejnxmp-fill" stroke="none" fill="#666666"><g><text style="font: 20px Roboto, sans-serif; white-space: pre;"><tspan x="12" y="34" dominant-baseline="ideographic">Ciencia de Datos</tspan></text></g></g></g><g id="g-root-1_1um5qp11ejfhfm-fill" data-item-order="0" data-item-id="1_1um5qp11ejfhfm" data-item-class="Icon Stroke InsideFill InsideColorFill InsideBlackFill ColorStrokeBlack" data-item-index="none" data-renderer-id="0" transform="translate(314, 217.99609375)"></g><g id="g-root-tx_algoritm_8wi3xh1ejnzf1-fill" data-item-order="0" data-item-id="tx_algoritm_8wi3xh1ejnzf1" data-item-class="Label Stroke Indexed ColorStrokeBlack" data-item-index="5" data-renderer-id="0" transform="translate(2, 230)"><g id="tx_algoritm_8wi3xh1ejnzf1-fill" stroke="none" fill="#666666"><g><text style="font: 20px Roboto, sans-serif; white-space: pre;"><tspan x="15.23" y="34" dominant-baseline="ideographic">Algoritmos de </tspan><tspan x="51.08" y="58" dominant-baseline="ideographic">Regresión</tspan></text></g></g></g><g id="g-root-line_1czviw51ejfj7l-fill" data-item-order="0" data-item-id="line_1czviw51ejfj7l" data-item-class="Icon Stroke Indexed InsideFill InsideColorFill ColorStrokeBlack" data-item-index="5" data-renderer-id="0" transform="translate(158, 230)"></g><g id="g-root-circ_1cuvq791ejgx6q-fill" data-item-order="0" data-item-id="circ_1cuvq791ejgx6q" data-item-class="Icon Stroke Indexed InsideFill InsideColorFill ColorStrokeBlack" data-item-index="2" data-renderer-id="0" transform="translate(494, 230)"></g><g id="g-root-tx_algoritm_v4ukpx1ejnz7k-fill" data-item-order="0" data-item-id="tx_algoritm_v4ukpx1ejnz7k" data-item-class="Label Stroke Indexed ColorStrokeBlack" data-item-index="2" data-renderer-id="0" transform="translate(566, 230)"><g id="tx_algoritm_v4ukpx1ejnz7k-fill" stroke="none" fill="#666666"><g><text style="font: 20px Roboto, sans-serif; white-space: pre;"><tspan x="12" y="34" dominant-baseline="ideographic">Algoritmos de </tspan><tspan x="12" y="58" dominant-baseline="ideographic">Agrupación</tspan></text></g></g></g><g id="g-root-tx_algoritm_1cw4l7p1ejnwue-fill" data-item-order="0" data-item-id="tx_algoritm_1cw4l7p1ejnwue" data-item-class="Label Stroke Indexed ColorStrokeBlack" data-item-index="4" data-renderer-id="0" transform="translate(110, 374)"><g id="tx_algoritm_1cw4l7p1ejnwue-fill" stroke="none" fill="#666666"><g><text style="font: 20px Roboto, sans-serif; white-space: pre;"><tspan x="18.06" y="34" dominant-baseline="ideographic">Algoritmos </tspan><tspan x="14.08" y="58" dominant-baseline="ideographic">Bayesianos</tspan></text></g></g></g><g id="g-root-line_1uneov91ejgwzp-fill" data-item-order="0" data-item-id="line_1uneov91ejgwzp" data-item-class="Icon Stroke Indexed InsideFill InsideColorFill ColorStrokeBlack" data-item-index="4" data-renderer-id="0" transform="translate(242, 375.4921875)"></g><g id="g-root-1_m8l6jp1ejgx6r-fill" data-item-order="0" data-item-id="1_m8l6jp1ejgx6r" data-item-class="Icon Stroke Indexed InsideFill InsideColorFill ColorStrokeBlack" data-item-index="3" data-renderer-id="0" transform="translate(410, 375.4921875)"></g><g id="g-root-tx_redesneu_zko2ud1ejnyfb-fill" data-item-order="0" data-item-id="tx_redesneu_zko2ud1ejnyfb" data-item-class="Label Stroke Indexed ColorStrokeBlack" data-item-index="3" data-renderer-id="0" transform="translate(482, 374)"><g id="tx_redesneu_zko2ud1ejnyfb-fill" stroke="none" fill="#666666"><g><text style="font: 20px Roboto, sans-serif; white-space: pre;"><tspan x="12" y="34" dominant-baseline="ideographic">Redes </tspan><tspan x="12" y="58" dominant-baseline="ideographic">Neuronales</tspan></text></g></g></g><g id="g-root-6.cr-small_cr_18mjtyd1ejml1n-stroke" data-item-order="-148114" data-item-id="6.cr-small_cr_18mjtyd1ejml1n" data-item-class="Shape Stroke Fill Part Indexed ColorStrokeBlack" data-item-index="6" data-renderer-id="0" transform="translate(230, 72.5078125)"><g id="6.cr-small_cr_18mjtyd1ejml1n-stroke" fill="none" stroke-linecap="round" stroke-linejoin="round" stroke-miterlimit="4" stroke="#ffffff" stroke-width="2"><g><path d="M 10 46C 10 65.882251 26.117749 82 46 82C 65.882251 82 82 65.882251 82 46C 82 26.117749 65.882251 10 46 10C 26.117749 10 10 26.117749 10 46"></path></g></g></g><g id="g-root-5.cr-small_cr_1hi6u791ejmk8y-stroke" data-item-order="-148112" data-item-id="5.cr-small_cr_1hi6u791ejmk8y" data-item-class="Shape Stroke Fill Part Indexed ColorStrokeBlack" data-item-index="5" data-renderer-id="0" transform="translate(146, 218)"><g id="5.cr-small_cr_1hi6u791ejmk8y-stroke" fill="none" stroke-linecap="round" stroke-linejoin="round" stroke-miterlimit="4" stroke="#ffffff" stroke-width="2"><g><path d="M 10 46C 10 65.882251 26.117749 82 46 82C 65.882251 82 82 65.882251 82 46C 82 26.117749 65.882251 10 46 10C 26.117749 10 10 26.117749 10 46"></path></g></g></g><g id="g-root-4.cr-small_cr_1hi6u791ejmk8x-stroke" data-item-order="-148110" data-item-id="4.cr-small_cr_1hi6u791ejmk8x" data-item-class="Shape Stroke Fill Part Indexed ColorStrokeBlack" data-item-index="4" data-renderer-id="0" transform="translate(230, 363.865234375)"><g id="4.cr-small_cr_1hi6u791ejmk8x-stroke" fill="none" stroke-linecap="round" stroke-linejoin="round" stroke-miterlimit="4" stroke="#ffffff" stroke-width="2"><g><path d="M 10 46C 10 65.882251 26.117749 82 46 82C 65.882251 82 82 65.882251 82 46C 82 26.117749 65.882251 10 46 10C 26.117749 10 10 26.117749 10 46"></path></g></g></g><g id="g-root-3.cr-small_cr_1hi6u791ejmk8w-stroke" data-item-order="-148108" data-item-id="3.cr-small_cr_1hi6u791ejmk8w" data-item-class="Shape Stroke Fill Part Indexed ColorStrokeBlack" data-item-index="3" data-renderer-id="0" transform="translate(398, 363.4921875)"><g id="3.cr-small_cr_1hi6u791ejmk8w-stroke" fill="none" stroke-linecap="round" stroke-linejoin="round" stroke-miterlimit="4" stroke="#ffffff" stroke-width="2"><g><path d="M 10 46C 10 65.882251 26.117749 82 46 82C 65.882251 82 82 65.882251 82 46C 82 26.117749 65.882251 10 46 10C 26.117749 10 10 26.117749 10 46"></path></g></g></g><g id="g-root-2.cr-small_cr_1ly0cbp1ejmjgn-stroke" data-item-order="-148106" data-item-id="2.cr-small_cr_1ly0cbp1ejmjgn" data-item-class="Shape Stroke Fill Part Indexed ColorStrokeBlack" data-item-index="2" data-renderer-id="0" transform="translate(481.63800048828125, 217.99609375)"><g id="2.cr-small_cr_1ly0cbp1ejmjgn-stroke" fill="none" stroke-linecap="round" stroke-linejoin="round" stroke-miterlimit="4" stroke="#ffffff" stroke-width="2"><g><path d="M 10 46C 10 65.882251 26.117749 82 46 82C 65.882251 82 82 65.882251 82 46C 82 26.117749 65.882251 10 46 10C 26.117749 10 10 26.117749 10 46"></path></g></g></g><g id="g-root-1.cr-small_cr_1ly0cbp1ejmjgm-stroke" data-item-order="-148104" data-item-id="1.cr-small_cr_1ly0cbp1ejmjgm" data-item-class="Shape Stroke Fill Part Indexed Indexed_1 ColorStrokeBlack" data-item-index="1" data-renderer-id="0" transform="translate(398, 72.5078125)"><g id="1.cr-small_cr_1ly0cbp1ejmjgm-stroke" fill="none" stroke-linecap="round" stroke-linejoin="round" stroke-miterlimit="4" stroke="#ffffff" stroke-width="2"><g><path d="M 10 46C 10 65.882251 26.117749 82 46 82C 65.882251 82 82 65.882251 82 46C 82 26.117749 65.882251 10 46 10C 26.117749 10 10 26.117749 10 46"></path></g></g></g><g id="g-root-0.Vector_sy_1qdtug51ejmioc-stroke" data-item-order="-148102" data-item-id="0.Vector_sy_1qdtug51ejmioc" data-item-class="Part Indexed_0 Fill Stroke ColorFillBlack ColorStrokeBlack" data-item-index="0" data-renderer-id="0" transform="translate(278, 181.99609375)"><g id="0.Vector_sy_1qdtug51ejmioc-stroke" fill="none" stroke-linecap="round" stroke-linejoin="round" stroke-miterlimit="4" stroke="#ffffff" stroke-width="2"><g><path d="M 154 81.999998C 154 42.235998 121.765 9.999998 82 9.999998L 82 9.999998C 42.236 9.999998 10 42.235998 10 81.999998L 10 81.999998C 10 121.764998 42.236 153.999998 82 153.999998L 82 153.999998C 121.765 153.999998 154 121.764998 154 81.999998L 154 81.999998Z"></path></g></g></g><g id="g-root-0.Union_sy_1qdtug51ejmiod-stroke" data-item-order="-148100" data-item-id="0.Union_sy_1qdtug51ejmiod" data-item-class="Part Indexed_0 Fill Stroke ColorFillBlack ColorStrokeBlack" data-item-index="0" data-renderer-id="0" transform="translate(238, 156.884765625)"><g id="0.Union_sy_1qdtug51ejmiod-stroke" fill="none" stroke-linecap="round" stroke-linejoin="round" stroke-miterlimit="4" stroke="#ffffff" stroke-width="2"><g><path d="M 61.889 28.540005L 66.072 10.000005L 84.22 15.648005L 78.005 19.236005L 91.166 42.033005C 100.513 37.597005 110.967 35.115005 122 35.115005C 133.077 35.115005 143.571 37.617005 152.945 42.086005L 166.127 19.254005L 159.974 15.702005L 178.122 10.053005L 182.305 28.594005L 176.09 25.006005L 162.9 47.851005C 180.201 59.814005 192.009 79.158005 193.771 101.331005L 220.135 101.331005L 220.135 94.226005L 234.101 107.119005L 220.135 120.011005L 220.135 112.835005L 193.776 112.835005C 192.032 135.030005 180.223 154.396005 162.911 166.371005L 176.058 189.142005L 182.211 185.590005L 178.029 204.130005L 159.881 198.482005L 166.096 194.894005L 152.958 172.138005C 143.58 176.611005 133.082 179.115005 122 179.115005C 110.936 179.115005 100.454 176.619005 91.088 172.160005L 77.973 194.876005L 84.127 198.428005L 65.979 204.077005L 61.796 185.536005L 68.011 189.124005L 81.131 166.400005C 63.787 154.420005 51.957 135.027005 50.221 112.799005L 23.965 112.799005L 23.965 119.904005L 10 107.011005L 23.965 94.119005L 23.965 101.295005L 50.232 101.295005C 52.008 79.094005 63.855 59.732005 81.202 47.781005L 68.042 24.988005L 61.889 28.540005Z"></path></g></g></g><g id="g-root-tx_tiposdea_8ydj6t1ejnyfe-stroke" data-item-order="0" data-item-id="tx_tiposdea_8ydj6t1ejnyfe" data-item-class="Label Stroke Title ColorStrokeBlack" data-item-index="none" data-renderer-id="0" transform="translate(200, 2)"></g><g id="g-root-tx_rbolesde_18mjtyd1ejml1o-stroke" data-item-order="0" data-item-id="tx_rbolesde_18mjtyd1ejml1o" data-item-class="Label Stroke Indexed ColorStrokeBlack" data-item-index="6" data-renderer-id="0" transform="translate(110, 86)"></g><g id="g-root-spli_8x4o6d1ejgyro-stroke" data-item-order="0" data-item-id="spli_8x4o6d1ejgyro" data-item-class="Icon Stroke Indexed InsideFill InsideColorFill ColorStrokeBlack" data-item-index="6" data-renderer-id="0" transform="translate(242, 84.5078125)"><g id="spli_8x4o6d1ejgyro-stroke" fill="none" stroke-linecap="round" stroke-linejoin="round" stroke-miterlimit="4" stroke="#ffffff" stroke-width="2"><g><path d="M 29.386 21C 28.996462 21.000385 28.636669 20.791733 28.443539 20.453444C 28.250408 20.115154 28.253637 19.699249 28.452 19.364L 33.063999 11.534C 33.259914 11.203392 33.615707 11.00066 34 11.00066C 34.384296 11.00066 34.740089 11.203392 34.936001 11.534L 39.548 19.364C 39.746361 19.699249 39.749596 20.115154 39.556465 20.453444C 39.363331 20.791733 39.00354 21.000385 38.613998 21ZM 21.214001 29.382C 21.350981 29.050417 21.299839 28.670864 21.079981 28.387362C 20.860123 28.103861 20.505241 27.959858 20.15 28.01L 11.86 29.176001C 11.506725 29.22415 11.205809 29.456751 11.070201 29.786497C 10.934593 30.116241 10.984809 30.493246 11.202 30.775999L 16.237999 37.461998C 16.453632 37.749405 16.806881 37.899036 17.163345 37.853958C 17.519814 37.808884 17.824696 37.576035 17.962 37.243999L 19.588001 33.318001ZM 19.678001 33.223999C 28.347345 36.814842 33.999954 45.274418 34 54.658001L 34 57M 46.785999 29.382C 46.649017 29.050417 46.700161 28.670864 46.920017 28.387362C 47.139877 28.103861 47.494759 27.959858 47.849998 28.01L 56.139999 29.176001C 56.493275 29.22415 56.794189 29.456751 56.929798 29.786497C 57.065407 30.116241 57.01519 30.493246 56.798 30.775999L 51.762001 37.461998C 51.546368 37.749405 51.193119 37.899036 50.836655 37.853958C 50.480186 37.808884 50.175304 37.576035 50.037998 37.243999L 48.411999 33.318001ZM 48.321999 33.223999C 39.652657 36.814842 34.000046 45.274418 34 54.658001L 34 57M 34 21L 34 56"></path></g></g></g><g id="g-root-bars_1lrromd1ejgxse-stroke" data-item-order="0" data-item-id="bars_1lrromd1ejgxse" data-item-class="Icon Stroke Indexed Indexed_1 InsideFill InsideColorFill ColorStrokeBlack" data-item-index="1" data-renderer-id="0" transform="translate(410, 84.5078125)"><g id="bars_1lrromd1ejgxse-stroke" fill="none" stroke-linecap="round" stroke-linejoin="round" stroke-miterlimit="4" stroke="#ffffff" stroke-width="2"><g><path d="M 10.882 49L 56.882 49M 18.882 49L 18.882 40C 18.882 39.447716 18.434284 39 17.882 39L 13.882 39C 13.329716 39 12.882 39.447716 12.882 40L 12.882 49M 30.882 49L 30.882 30C 30.882 29.447716 30.434284 29 29.882 29L 25.882 29C 25.329716 29 24.882 29.447716 24.882 30L 24.882 49M 42.882 49L 42.882 34C 42.882 33.447716 42.434284 33 41.882 33L 37.882 33C 37.329716 33 36.882 33.447716 36.882 34L 36.882 49M 54.882 49L 54.882 20C 54.882 19.447716 54.434284 19 53.882 19L 49.882 19C 49.329716 19 48.882 19.447716 48.882 20L 48.882 49"></path></g></g></g><g id="g-root-tx_cienciad_hu0jfp1ejnxmp-stroke" data-item-order="0" data-item-id="tx_cienciad_hu0jfp1ejnxmp" data-item-class="Label Stroke Indexed Indexed_1 ColorStrokeBlack" data-item-index="1" data-renderer-id="0" transform="translate(482, 98)"></g><g id="g-root-1_1um5qp11ejfhfm-stroke" data-item-order="0" data-item-id="1_1um5qp11ejfhfm" data-item-class="Icon Stroke InsideFill InsideColorFill InsideBlackFill ColorStrokeBlack" data-item-index="none" data-renderer-id="0" transform="translate(314, 217.99609375)"><g id="1_1um5qp11ejfhfm-stroke" fill="none" stroke-linecap="round" stroke-linejoin="round" stroke-miterlimit="4" stroke="#ffffff" stroke-width="2"><g><path d="M 11.5 72.997002C 11.5 77.139137 14.857864 80.497002 19 80.497002C 23.142136 80.497002 26.5 77.139137 26.5 72.997002C 26.5 68.854866 23.142136 65.497002 19 65.497002C 14.857864 65.497002 11.5 68.854866 11.5 72.997002ZM 31 38.496998C 31 42.639137 34.357864 45.997002 38.5 45.997002C 42.642136 45.997002 46 42.639137 46 38.497002C 46 34.354866 42.642136 30.997 38.5 30.997C 34.357864 30.997 31 34.354866 31 38.497002ZM 52 56.496998C 52 60.639137 55.357864 63.997002 59.5 63.997002C 63.642136 63.997002 67 60.639137 67 56.497002C 67 52.354866 63.642136 48.997002 59.5 48.997002C 55.357864 48.997002 52 52.354866 52 56.497002ZM 65.5 18.997C 65.5 23.139137 68.857864 26.497 73 26.497C 77.142136 26.497 80.5 23.139137 80.5 18.997C 80.5 14.854864 77.142136 11.497 73 11.497C 68.857864 11.497 65.5 14.854864 65.5 18.997ZM 22.690001 66.462997L 34.810001 45.028M 44.194 43.381001L 53.806 51.618999M 62.041 49.438L 70.456001 26.052999"></path></g></g></g><g id="g-root-tx_algoritm_8wi3xh1ejnzf1-stroke" data-item-order="0" data-item-id="tx_algoritm_8wi3xh1ejnzf1" data-item-class="Label Stroke Indexed ColorStrokeBlack" data-item-index="5" data-renderer-id="0" transform="translate(2, 230)"></g><g id="g-root-line_1czviw51ejfj7l-stroke" data-item-order="0" data-item-id="line_1czviw51ejfj7l" data-item-class="Icon Stroke Indexed InsideFill InsideColorFill ColorStrokeBlack" data-item-index="5" data-renderer-id="0" transform="translate(158, 230)"><g id="line_1czviw51ejfj7l-stroke" fill="none" stroke-linecap="round" stroke-linejoin="round" stroke-miterlimit="4" stroke="#ffffff" stroke-width="2"><g><path d="M 11.008 34C 11.008 46.702549 21.30545 57 34.008003 57C 46.710548 57 57.007999 46.702549 57.007999 34C 57.007999 21.297451 46.710548 11 34.008003 11C 21.30545 11 11.008 21.297451 11.008 34ZM 47.007999 45L 21.007999 45L 21.007999 25M 21 35L 26.378 31.926001C 27.291264 31.403624 28.453098 31.678127 29.035999 32.554001L 32.860001 38.290001C 33.044575 38.730682 33.483971 39.00988 33.961323 38.989807C 34.438675 38.96973 34.853073 38.654621 35 38.199997L 39.528 29.879999C 39.830055 29.326275 40.375626 28.947491 41 28.858L 47 28"></path></g></g></g><g id="g-root-circ_1cuvq791ejgx6q-stroke" data-item-order="0" data-item-id="circ_1cuvq791ejgx6q" data-item-class="Icon Stroke Indexed InsideFill InsideColorFill ColorStrokeBlack" data-item-index="2" data-renderer-id="0" transform="translate(494, 230)"><g id="circ_1cuvq791ejgx6q-stroke" fill="none" stroke-linecap="round" stroke-linejoin="round" stroke-miterlimit="4" stroke="#ffffff" stroke-width="2"><g><path d="M 11 34.02C 11 46.722549 21.297451 57.02 34 57.02C 46.702549 57.02 57 46.722549 57 34.02C 57 21.317451 46.702549 11.02 34 11.02C 21.297451 11.02 11 21.317451 11 34.02ZM 17.5 28.52C 17.5 33.21442 21.30558 37.02 26 37.02C 30.69442 37.02 34.5 33.21442 34.5 28.52C 34.5 23.825581 30.69442 20.02 26 20.02C 21.30558 20.02 17.5 23.825581 17.5 28.52ZM 49.355999 42.599998C 45.072517 41.074444 40.299065 42.630806 37.737999 46.388C 33.533558 39.921589 24.890907 38.073936 18.41 42.256001M 40 33.02C 40 36.33371 42.686291 39.02 46 39.02C 49.313709 39.02 52 36.33371 52 33.02C 52 29.706293 49.313709 27.02 46 27.02C 42.686291 27.02 40 29.706293 40 33.02Z"></path></g></g></g><g id="g-root-tx_algoritm_v4ukpx1ejnz7k-stroke" data-item-order="0" data-item-id="tx_algoritm_v4ukpx1ejnz7k" data-item-class="Label Stroke Indexed ColorStrokeBlack" data-item-index="2" data-renderer-id="0" transform="translate(566, 230)"></g><g id="g-root-tx_algoritm_1cw4l7p1ejnwue-stroke" data-item-order="0" data-item-id="tx_algoritm_1cw4l7p1ejnwue" data-item-class="Label Stroke Indexed ColorStrokeBlack" data-item-index="4" data-renderer-id="0" transform="translate(110, 374)"></g><g id="g-root-line_1uneov91ejgwzp-stroke" data-item-order="0" data-item-id="line_1uneov91ejgwzp" data-item-class="Icon Stroke Indexed InsideFill InsideColorFill ColorStrokeBlack" data-item-index="4" data-renderer-id="0" transform="translate(242, 375.4921875)"><g id="line_1uneov91ejgwzp-stroke" fill="none" stroke-linecap="round" stroke-linejoin="round" stroke-miterlimit="4" stroke="#ffffff" stroke-width="2"><g><path d="M 11 33.438L 25.498001 25.438C 27.771118 24.340263 30.364349 24.100899 32.799999 24.764L 40.211998 27.236C 42.510612 27.872299 44.973053 27.197374 46.625999 25.478001L 57 13.5L 57 55.5C 57 56.052284 56.552284 56.5 56 56.5L 12 56.5C 11.447716 56.5 11 56.052284 11 55.5L 11 11.5M 11 45.5L 23.514 38.461998C 25.838638 37.27578 28.392372 36.606472 31 36.5L 36 36.5C 38.632065 36.414696 41.23243 35.89922 43.697998 34.973999L 57 29.483999M 11 55.562L 23.709999 46.773998C 25.89522 45.418518 28.429409 44.732304 31 44.799999L 36.024002 45.188C 38.666168 45.324795 41.31498 45.123158 43.905998 44.587997L 57 41.5"></path></g></g></g><g id="g-root-1_m8l6jp1ejgx6r-stroke" data-item-order="0" data-item-id="1_m8l6jp1ejgx6r" data-item-class="Icon Stroke Indexed InsideFill InsideColorFill ColorStrokeBlack" data-item-index="3" data-renderer-id="0" transform="translate(410, 375.4921875)"><g id="1_m8l6jp1ejgx6r-stroke" fill="none" stroke-linecap="round" stroke-linejoin="round" stroke-miterlimit="4" stroke="#ffffff" stroke-width="2"><g><path d="M 21.9 50.722C 24.020437 50.369061 25.810703 48.951202 26.639999 46.967999M 14.842 27.091999C 18.933346 27.809448 22.448338 30.41087 24.33 34.113998M 21.566 30.458L 25.152 27.768M 30 11.346C 29.961555 13.350931 29.599562 15.336494 28.928001 17.226M 26 19C 26 20.104568 26.89543 21 28 21C 29.10457 21 30 20.104568 30 19C 30 17.895432 29.10457 17 28 17C 26.89543 17 26 17.895432 26 19ZM 38 23C 38 24.104568 38.895432 25 40 25C 41.104568 25 42 24.104568 42 23C 42 21.895432 41.104568 21 40 21C 38.895432 21 38 21.895432 38 23ZM 45 31C 45 32.104568 45.895432 33 47 33C 48.104568 33 49 32.104568 49 31C 49 29.89543 48.104568 29 47 29C 45.895432 29 45 29.89543 45 31ZM 38 38C 38 39.104568 38.895432 40 40 40C 41.104568 40 42 39.104568 42 38C 42 36.895432 41.104568 36 40 36C 38.895432 36 38 36.895432 38 38ZM 25 27C 25 28.10457 25.895432 29 27 29C 28.10457 29 29 28.10457 29 27C 29 25.895432 28.10457 25 27 25C 25.895432 25 25 25.895432 25 27ZM 23 36C 23 37.104568 23.895432 38 25 38C 26.10457 38 27 37.104568 27 36C 27 34.895432 26.10457 34 25 34C 23.895432 34 23 34.895432 23 36ZM 57 34C 57.008011 31.185829 55.553005 28.569696 53.158001 27.092001C 53.293533 26.501471 53.363956 25.897869 53.368 25.292C 53.408073 21.133251 50.242878 17.643175 46.099998 17.278C 46.141312 15.640398 45.524818 14.054508 44.388306 12.874773C 43.251789 11.695037 41.690002 11.019809 40.052002 11C 37.462227 11.148269 35.151451 12.67555 34 15C 32.848549 12.67555 30.537773 11.148269 27.948 11C 26.309998 11.019809 24.748211 11.695037 23.611694 12.874773C 22.47518 14.054508 21.858686 15.640398 21.9 17.278C 17.755573 17.643291 14.589825 21.135719 14.632 25.296C 14.632763 25.901501 14.699829 26.505098 14.832 27.095999C 12.44329 28.57963 10.990566 31.192043 10.990566 34.003998C 10.990566 36.815956 12.44329 39.428368 14.832 40.911999C 14.699829 41.502899 14.632763 42.106499 14.632 42.711998C 14.594027 46.869217 17.758669 50.356941 21.9 50.722C 21.858686 52.3596 22.47518 53.945492 23.611694 55.125225C 24.748211 56.304962 26.309998 56.98019 27.948 57C 30.33633 57.057899 32.59996 55.93581 34 53.999996C 35.40004 55.93581 37.663666 57.057899 40.051998 56.999996C 41.690002 56.98019 43.251789 56.304962 44.388306 55.125225C 45.524818 53.945492 46.141312 52.3596 46.099998 50.722C 50.244423 50.356709 53.410175 46.864277 53.368 42.703999C 53.363956 42.098129 53.293533 41.49453 53.157997 40.903999C 55.551788 39.427048 57.006618 36.812752 57 34ZM 34 15L 34 38M 34 45.916L 34 54M 52.346001 21.326L 46.799999 24.102001C 45.179813 24.913155 43.276203 24.932337 41.639999 24.153999M 40 36C 40.593044 33.525269 42.525269 31.593044 45.000004 31.000002M 46.099998 50.722C 45.548 48.799999 44.605999 47.321999 43 47M 25 45C 25 46.104568 25.895432 47 27 47C 28.10457 47 29 46.104568 29 45C 29 43.895432 28.10457 43 27 43C 25.895432 43 25 43.895432 25 45ZM 39 47C 39 48.104568 39.895432 49 41 49C 42.104568 49 43 48.104568 43 47C 43 45.895432 42.104568 45 41 45C 39.895432 45 39 45.895432 39 47Z"></path></g></g></g><g id="g-root-tx_redesneu_zko2ud1ejnyfb-stroke" data-item-order="0" data-item-id="tx_redesneu_zko2ud1ejnyfb" data-item-class="Label Stroke Indexed ColorStrokeBlack" data-item-index="3" data-renderer-id="0" transform="translate(482, 374)"></g></g></g></svg>